<mxfile host="app.diagrams.net" modified="2023-09-24T16:16:30.796Z" agent="Mozilla/5.0 (Macintosh; Intel Mac OS X 10_15_7) AppleWebKit/537.36 (KHTML, like Gecko) Chrome/117.0.0.0 Safari/537.36" version="21.8.2" etag="_3pyyC5NfDmJsmMGzviF" type="github">
  <diagram name="Page-1" id="1_N_j5-p2ikCf7SeWhBy">
    <mxGraphModel>
      <root>
        <mxCell id="0" />
        <mxCell id="1" parent="0" />
      </root>
    </mxGraphModel>
  </diagram>
</mxfile>
